<svg width="226" height="24" viewBox="0 0 226 24" fill="none" xmlns="http://www.w3.org/2000/svg">
<path d="M46.44 19L46.4 5H43.74L38.58 13.7L33.34 5H30.66V19H33.7V10.78L37.8 17.52H39.26L43.38 10.6L43.4 19H46.44ZM56.5416 19.24C60.9416 19.24 64.2016 16.18 64.2016 12C64.2016 7.82 60.9416 4.76 56.5416 4.76C52.1216 4.76 48.8816 7.84 48.8816 12C48.8816 16.16 52.1216 19.24 56.5416 19.24ZM56.5416 16.48C54.0416 16.48 52.1616 14.66 52.1616 12C52.1616 9.34 54.0416 7.52 56.5416 7.52C59.0416 7.52 60.9216 9.34 60.9216 12C60.9216 14.66 59.0416 16.48 56.5416 16.48ZM76.2766 5V13.5L69.3166 5H66.6366V19H69.8366V10.5L76.8166 19H79.4766V5H76.2766ZM86.0089 16.4V13.16H92.5089V10.64H86.0089V7.6H93.3689V5H82.7889V19H93.6289V16.4H86.0089ZM108.23 5H105.05L101.31 11.22L97.5702 5H94.1302L99.5502 14V19H102.79V14.04L108.23 5ZM112.669 16.4V13.16H119.169V10.64H112.669V7.6H120.029V5H109.449V19H120.289V16.4H112.669ZM135.29 19L130.07 11.76L134.95 5H131.45L128.29 9.54L125.07 5H121.39L126.31 11.88L121.13 19H124.85L128.17 14.14L131.55 19H135.29ZM143.708 19.12C145.768 19.12 147.608 18.42 148.848 17.06L147.908 16.12C146.768 17.3 145.368 17.8 143.768 17.8C140.388 17.8 137.848 15.32 137.848 12C137.848 8.68 140.388 6.2 143.768 6.2C145.368 6.2 146.768 6.7 147.908 7.86L148.848 6.92C147.608 5.56 145.768 4.88 143.728 4.88C139.508 4.88 136.388 7.9 136.388 12C136.388 16.1 139.508 19.12 143.708 19.12ZM162.243 5V11.24H153.483V5H152.003V19H153.483V12.54H162.243V19H163.703V5H162.243ZM178.732 19H180.292L173.892 5H172.432L166.032 19H167.572L169.252 15.26H177.052L178.732 19ZM169.792 14.06L173.152 6.54L176.512 14.06H169.792ZM192.848 5V16.36L183.828 5H182.608V19H184.088V7.64L193.088 19H194.308V5H192.848ZM208.738 16.72C207.658 17.5 206.418 17.8 205.078 17.8C201.638 17.8 199.098 15.32 199.098 12C199.098 8.66 201.638 6.2 205.098 6.2C206.738 6.2 208.138 6.68 209.318 7.84L210.238 6.9C208.998 5.56 207.158 4.88 205.038 4.88C200.758 4.88 197.638 7.9 197.638 12C197.638 16.1 200.758 19.12 205.018 19.12C206.958 19.12 208.838 18.52 210.158 17.34V12H208.738V16.72ZM215.826 17.72V12.52H223.066V11.26H215.826V6.28H223.946V5H214.346V19H224.246V17.72H215.826Z" fill="#160647"/>
<path d="M15 4L9.5 14L0 19H15V4Z" fill="url(#paint0_linear)"/>
<defs>
<linearGradient id="paint0_linear" x1="11.1548" y1="8.92507" x2="5.25648" y2="16.1023" gradientUnits="userSpaceOnUse">
<stop stop-color="#562EC2"/>
<stop offset="1" stop-color="#A07EFE"/>
</linearGradient>
</defs>
</svg>
